HIERARCHY
ROOT Hips
{
	OFFSET 0.000000 83.214638 0.000000
	CHANNELS 6 Xposition Yposition Zposition Xrotation Yrotation Zrotation
	JOINT Pelvis
	{
		OFFSET 0.000000 0.000000 0.000000
		CHANNELS 3 Xrotation Yrotation Zrotation
		JOINT LeftUpLeg
		{
			OFFSET 8.479700 -4.795502 -0.379100
			CHANNELS 3 Xrotation Yrotation Zrotation
			JOINT LeftLeg
			{
				OFFSET 0.024144 -32.555107 0.112900
				CHANNELS 3 Xrotation Yrotation Zrotation
				JOINT LeftFoot
				{
					OFFSET -0.024144 -32.638630 -3.012600
					CHANNELS 3 Xrotation Yrotation Zrotation
					JOINT LeftToeBase
					{
						OFFSET 0.970200 -13.225400 11.864200
						CHANNELS 3 Xrotation Yrotation Zrotation
						End Site
						{
							OFFSET 0.000000 12.319262 0.000000
						}
					}
					JOINT LFootTongue
					{
						OFFSET 1.142400 -1.059800 6.665200
						CHANNELS 3 Xrotation Yrotation Zrotation
						End Site
						{
							OFFSET 0.000000 12.319262 0.000000
						}
					}
				}
				JOINT LeftPantLeg
				{
					OFFSET 0.918482 -16.533964 -2.284700
					CHANNELS 3 Xrotation Yrotation Zrotation
					End Site
					{
						OFFSET 0.350399 24.744368 0.000000
					}
				}
			}
		}
		JOINT RightUpLeg
		{
			OFFSET -8.479700 -4.795502 -0.379100
			CHANNELS 3 Xrotation Yrotation Zrotation
			JOINT RightLeg
			{
				OFFSET -0.023144 -32.555092 0.112900
				CHANNELS 3 Xrotation Yrotation Zrotation
				JOINT RightFoot
				{
					OFFSET 0.023144 -32.638641 -3.012700
					CHANNELS 3 Xrotation Yrotation Zrotation
					JOINT RightToeBase
					{
						OFFSET -0.970200 -13.225400 11.864200
						CHANNELS 3 Xrotation Yrotation Zrotation
						End Site
						{
							OFFSET 0.000000 12.319244 0.000000
						}
					}
					JOINT RFootTongue
					{
						OFFSET -1.142200 -1.059800 6.665200
						CHANNELS 3 Xrotation Yrotation Zrotation
						End Site
						{
							OFFSET 0.000000 12.319243 0.000000
						}
					}
				}
				JOINT RightPantLeg
				{
					OFFSET -0.919482 -16.533978 -2.284800
					CHANNELS 3 Xrotation Yrotation Zrotation
					End Site
					{
						OFFSET -0.350400 24.744419 0.000000
					}
				}
			}
		}
	}
	JOINT Spine
	{
		OFFSET 0.000000 7.722000 1.166200
		CHANNELS 3 Xrotation Yrotation Zrotation
		JOINT Spine1
		{
			OFFSET 0.000000 12.024101 0.248800
			CHANNELS 3 Xrotation Yrotation Zrotation
			JOINT Spine2
			{
				OFFSET 0.000000 11.502998 -0.491200
				CHANNELS 3 Xrotation Yrotation Zrotation
				JOINT Neck
				{
					OFFSET 0.000000 18.430702 -3.123100
					CHANNELS 3 Xrotation Yrotation Zrotation
					JOINT Head
					{
						OFFSET 0.000000 9.051102 1.034000
						CHANNELS 3 Xrotation Yrotation Zrotation
						JOINT HairB
						{
							OFFSET 0.208400 24.786102 24.822300
							CHANNELS 3 Xrotation Yrotation Zrotation
							End Site
							{
								OFFSET 0.000000 32.263779 0.000000
							}
						}
						JOINT HairA
						{
							OFFSET -7.081100 24.428299 23.196600
							CHANNELS 3 Xrotation Yrotation Zrotation
							End Site
							{
								OFFSET 0.000000 32.263779 0.000000
							}
						}
						JOINT Hat
						{
							OFFSET 16.728800 15.048294 -15.439601
							CHANNELS 3 Xrotation Yrotation Zrotation
							End Site
							{
								OFFSET 0.000000 32.263779 0.000000
							}
						}
					}
				}
				JOINT LeftShoulder
				{
					OFFSET 6.197800 13.665199 -4.064700
					CHANNELS 3 Xrotation Yrotation Zrotation
					JOINT LeftArm
					{
						OFFSET 7.778100 -0.187103 -1.709300
						CHANNELS 3 Xrotation Yrotation Zrotation
						JOINT LeftForeArm
						{
							OFFSET 22.049376 0.000000 0.000000
							CHANNELS 3 Xrotation Yrotation Zrotation
							JOINT LeftHand
							{
								OFFSET 23.009392 0.000000 0.000000
								CHANNELS 3 Xrotation Yrotation Zrotation
								JOINT LeftHandThumb1
								{
									OFFSET 3.507191 -2.063065 3.133727
									CHANNELS 3 Xrotation Yrotation Zrotation
									JOINT LeftHandThumb2
									{
										OFFSET 3.101337 -1.790558 1.790558
										CHANNELS 3 Xrotation Yrotation Zrotation
										JOINT LeftHandThumb3
										{
											OFFSET 3.058640 -1.765907 1.765906
											CHANNELS 3 Xrotation Yrotation Zrotation
											End Site
											{
												OFFSET -0.415260 3.926476 -0.049563
											}
										}
									}
								}
								JOINT LeftHandIndex1
								{
									OFFSET 11.334419 -0.901459 3.706815
									CHANNELS 3 Xrotation Yrotation Zrotation
									JOINT LeftHandIndex2
									{
										OFFSET 3.283112 0.000000 0.000000
										CHANNELS 3 Xrotation Yrotation Zrotation
										JOINT LeftHandIndex3
										{
											OFFSET 3.323853 0.000000 0.000000
											CHANNELS 3 Xrotation Yrotation Zrotation
											End Site
											{
												OFFSET -1.135597 3.097809 0.402452
											}
										}
									}
								}
								JOINT LeftHandMiddle1
								{
									OFFSET 11.335861 0.000000 0.000000
									CHANNELS 3 Xrotation Yrotation Zrotation
									JOINT LeftHandMiddle2
									{
										OFFSET 3.410492 0.000000 0.000000
										CHANNELS 3 Xrotation Yrotation Zrotation
										JOINT LeftHandMiddle3
										{
											OFFSET 3.312172 0.000000 0.000000
											CHANNELS 3 Xrotation Yrotation Zrotation
											End Site
											{
												OFFSET -1.150200 3.080154 0.400270
											}
										}
									}
								}
								JOINT LeftHandRing1
								{
									OFFSET 11.514786 -0.013176 -3.003090
									CHANNELS 3 Xrotation Yrotation Zrotation
									JOINT LeftHandRing2
									{
										OFFSET 3.053307 0.000000 0.000000
										CHANNELS 3 Xrotation Yrotation Zrotation
										JOINT LeftHandRing3
										{
											OFFSET 3.295807 0.000000 0.000000
											CHANNELS 3 Xrotation Yrotation Zrotation
											End Site
											{
												OFFSET -1.281006 3.013344 0.375733
											}
										}
									}
								}
								JOINT LeftHandPinky1
								{
									OFFSET 10.518692 -0.960396 -5.730441
									CHANNELS 3 Xrotation Yrotation Zrotation
									JOINT LeftHandPinky2
									{
										OFFSET 2.861649 0.000000 0.000000
										CHANNELS 3 Xrotation Yrotation Zrotation
										JOINT LeftHandPinky3
										{
											OFFSET 2.863380 0.000000 0.000000
											CHANNELS 3 Xrotation Yrotation Zrotation
											End Site
											{
												OFFSET -0.843597 2.711159 0.369971
											}
										}
									}
								}
							}
							JOINT LSleeve
							{
								OFFSET 6.676277 -0.344902 -1.011730
								CHANNELS 3 Xrotation Yrotation Zrotation
								End Site
								{
									OFFSET 0.000000 14.885353 0.000000
								}
							}
						}
					}
				}
				JOINT RightShoulder
				{
					OFFSET -6.197800 13.665199 -4.064700
					CHANNELS 3 Xrotation Yrotation Zrotation
					JOINT RightArm
					{
						OFFSET -7.778100 -0.187103 -1.709300
						CHANNELS 3 Xrotation Yrotation Zrotation
						JOINT RightForeArm
						{
							OFFSET -22.049376 0.000000 0.000000
							CHANNELS 3 Xrotation Yrotation Zrotation
							JOINT RightHand
							{
								OFFSET -23.009392 0.000000 0.000000
								CHANNELS 3 Xrotation Yrotation Zrotation
								JOINT RightHandThumb1
								{
									OFFSET -3.507191 -2.063065 3.133727
									CHANNELS 3 Xrotation Yrotation Zrotation
									JOINT RightHandThumb2
									{
										OFFSET -3.101337 -1.790558 1.790558
										CHANNELS 3 Xrotation Yrotation Zrotation
										JOINT RightHandThumb3
										{
											OFFSET -3.058640 -1.765907 1.765906
											CHANNELS 3 Xrotation Yrotation Zrotation
											End Site
											{
												OFFSET 0.415260 3.926476 -0.049563
											}
										}
									}
								}
								JOINT RightHandIndex1
								{
									OFFSET -11.334419 -0.901459 3.706815
									CHANNELS 3 Xrotation Yrotation Zrotation
									JOINT RightHandIndex2
									{
										OFFSET -3.283112 0.000000 0.000000
										CHANNELS 3 Xrotation Yrotation Zrotation
										JOINT RightHandIndex3
										{
											OFFSET -3.323853 0.000000 0.000000
											CHANNELS 3 Xrotation Yrotation Zrotation
											End Site
											{
												OFFSET 1.135597 3.097809 0.402452
											}
										}
									}
								}
								JOINT RightHandMiddle1
								{
									OFFSET -11.335861 0.000000 0.000000
									CHANNELS 3 Xrotation Yrotation Zrotation
									JOINT RightHandMiddle2
									{
										OFFSET -3.410492 0.000000 0.000000
										CHANNELS 3 Xrotation Yrotation Zrotation
										JOINT RightHandMiddle3
										{
											OFFSET -3.312172 0.000000 0.000000
											CHANNELS 3 Xrotation Yrotation Zrotation
											End Site
											{
												OFFSET 1.150200 3.080154 0.400270
											}
										}
									}
								}
								JOINT RightHandRing1
								{
									OFFSET -11.514786 -0.013176 -3.003090
									CHANNELS 3 Xrotation Yrotation Zrotation
									JOINT RightHandRing2
									{
										OFFSET -3.053307 0.000000 0.000000
										CHANNELS 3 Xrotation Yrotation Zrotation
										JOINT RightHandRing3
										{
											OFFSET -3.295807 0.000000 0.000000
											CHANNELS 3 Xrotation Yrotation Zrotation
											End Site
											{
												OFFSET 1.281006 3.013344 0.375733
											}
										}
									}
								}
								JOINT RightHandPinky1
								{
									OFFSET -10.518692 -0.960396 -5.730441
									CHANNELS 3 Xrotation Yrotation Zrotation
									JOINT RightHandPinky2
									{
										OFFSET -2.861649 0.000000 0.000000
										CHANNELS 3 Xrotation Yrotation Zrotation
										JOINT RightHandPinky3
										{
											OFFSET -2.863380 0.000000 0.000000
											CHANNELS 3 Xrotation Yrotation Zrotation
											End Site
											{
												OFFSET 0.843597 2.711159 0.369971
											}
										}
									}
								}
							}
							JOINT RSleeve
							{
								OFFSET -6.676277 -0.344902 -1.011730
								CHANNELS 3 Xrotation Yrotation Zrotation
								End Site
								{
									OFFSET 0.000000 14.885353 0.000000
								}
							}
						}
					}
				}
				JOINT Backpack
				{
					OFFSET 0.000000 -2.471497 36.677502
					CHANNELS 3 Xrotation Yrotation Zrotation
					End Site
					{
						OFFSET 0.000000 20.427315 0.000000
					}
				}
				JOINT Hood
				{
					OFFSET 0.000000 18.754097 -10.431000
					CHANNELS 3 Xrotation Yrotation Zrotation
					JOINT Hood1
					{
						OFFSET 0.000000 -5.011002 -7.685901
						CHANNELS 3 Xrotation Yrotation Zrotation
						End Site
						{
							OFFSET 0.000000 9.175140 0.000000
						}
					}
				}
				JOINT LHoodieString
				{
					OFFSET 5.250500 16.397697 3.089900
					CHANNELS 3 Xrotation Yrotation Zrotation
					JOINT LHoodieString1
					{
						OFFSET 0.257700 -6.364304 3.694600
						CHANNELS 3 Xrotation Yrotation Zrotation
						JOINT LHoodieString2
						{
							OFFSET 0.000000 -9.643799 2.679100
							CHANNELS 3 Xrotation Yrotation Zrotation
							End Site
							{
								OFFSET 0.000000 10.009018 0.000000
							}
						}
					}
				}
				JOINT RHoodieString
				{
					OFFSET -5.250500 16.397697 3.089900
					CHANNELS 3 Xrotation Yrotation Zrotation
					JOINT RHoodieString1
					{
						OFFSET -0.257700 -6.364304 3.694600
						CHANNELS 3 Xrotation Yrotation Zrotation
						JOINT RHoodieString2
						{
							OFFSET 0.000000 -9.643799 2.679100
							CHANNELS 3 Xrotation Yrotation Zrotation
							End Site
							{
								OFFSET 0.000000 10.009018 0.000000
							}
						}
					}
				}
			}
			JOINT LBackpack_Strap
			{
				OFFSET 15.223200 -7.719803 -6.610900
				CHANNELS 3 Xrotation Yrotation Zrotation
				End Site
				{
					OFFSET 0.000000 16.040596 0.000000
				}
			}
			JOINT RBackpack_Strap
			{
				OFFSET -15.223000 -7.719803 -6.610900
				CHANNELS 3 Xrotation Yrotation Zrotation
				End Site
				{
					OFFSET 0.000000 16.040596 0.000000
				}
			}
		}
	}
	JOINT BoyFacialAnim_Joint
	{
		OFFSET 1.000000 -82.208099 -1.550900
		CHANNELS 3 Xrotation Yrotation Zrotation
		End Site
		{
			OFFSET 0.000000 30.012791 0.000000
		}
	}
}
MOTION
Frames: 5
Frame Time: 0.033333
-17.757402 73.061081 13.243738 -15.866726 55.510901 9.949980 -0.000000 0.000001 -0.000000 -43.651353 -13.875652 -8.506468 42.189433 -61.297280 -7.253965 8.027888 -5.221372 -8.506181 0.000001 0.000001 -0.000000 0.000001 0.000001 -0.000000 0.000000 -0.000002 0.000000 29.176642 -5.628470 30.564465 16.023617 -6.102521 -5.021285 -1.711203 7.162755 -14.098297 -0.000000 0.000000 -0.000001 -0.000000 0.000000 -0.000001 0.000002 -0.000002 0.000001 6.669260 6.921034 1.219841 -0.644798 13.623989 1.824426 -0.622439 13.623963 1.824919 17.948608 13.933172 3.750847 9.399615 13.009834 -17.725412 0.000002 -0.000001 0.000001 0.000002 -0.000001 0.000001 0.000002 -0.000001 0.000001 -12.284932 9.104437 -7.627660 77.856261 -18.605823 -18.564312 3.635300 3.186299 41.358342 -71.997543 10.510110 -16.115430 13.516053 6.224659 -5.931588 2.373418 19.986081 -2.038332 -0.000001 -0.000000 -0.000002 9.295759 -16.905449 -42.607905 -0.216562 0.384415 -42.157929 -0.000001 -0.000000 -0.000000 9.003840 -6.635010 -51.338847 0.442367 0.597088 -47.382959 0.000001 0.000000 0.000004 9.204414 5.684001 -62.156955 0.330439 0.199500 -53.935593 -0.000001 -0.000001 -0.000006 11.892444 18.946803 -72.871514 0.307179 0.180092 -60.479447 0.000000 0.000000 0.000002 0.000000 0.000002 -0.000001 4.599858 12.340164 -42.030447 -101.383558 -1.452574 6.694090 115.262529 158.700265 -129.183807 0.070964 18.462578 37.603033 -5.134268 7.667627 -8.847383 1.389944 -17.416769 3.013462 -0.000000 0.000001 -0.000003 5.885162 17.728541 0.638120 0.110962 -0.228453 0.775491 -0.000002 0.000003 0.000002 5.239056 10.128135 14.024632 0.005950 -0.557946 5.159931 0.000004 -0.000000 0.000001 5.907379 3.383400 21.660253 -0.020168 -0.213391 14.967154 0.000004 0.000000 0.000004 8.225119 -4.705028 35.101452 0.112556 -0.170112 25.750276 0.000001 -0.000001 0.000000 -0.000000 -0.000000 -0.000000 -0.000000 0.000000 -0.000000 -0.000000 0.000000 -0.000000 -0.000000 0.000000 -0.000000 -0.000000 0.000000 -0.000000 -0.000000 0.000000 -0.000000 -0.000000 0.000000 -0.000000 -0.000000 0.000000 -0.000000 -0.000000 0.000000 -0.000000 -0.000000 0.000000 -0.000000 0.000000 -0.000000 0.000000 0.000000 -0.000000 0.000000 -0.000000 0.000001 -0.000000 
-17.977160 73.071976 12.946193 -14.930805 55.686157 9.474862 -0.000000 -0.000001 0.000000 -43.768132 -14.753683 -8.696170 40.038040 -61.105680 -8.037258 7.121649 -5.078845 -8.903187 0.000000 0.000002 -0.000000 0.000000 0.000002 -0.000000 0.000000 0.000001 -0.000000 28.253805 -5.219506 30.461957 16.133593 -5.413834 -5.298683 -2.321689 7.418973 -14.909265 0.000002 -0.000000 0.000001 0.000002 -0.000000 0.000001 -0.000000 -0.000002 -0.000001 6.750059 6.907139 1.167166 -0.478483 13.599979 1.727905 -0.456121 13.600111 1.728396 16.928749 14.348945 2.582874 9.587079 13.093823 -16.916271 -0.000000 -0.000004 0.000001 -0.000000 -0.000004 0.000001 -0.000000 -0.000004 0.000001 -12.153813 8.045522 -7.764370 74.893543 -17.842930 -20.524368 8.589847 6.496811 37.596667 -72.802433 9.881768 -17.061707 12.436949 8.061067 -4.402590 2.373415 19.986083 -2.038338 0.000002 0.000001 0.000003 9.459791 -15.126535 -41.742862 -0.222112 0.381446 -41.729546 -0.000002 -0.000001 -0.000002 9.225469 -5.795300 -49.872163 0.441034 0.597546 -46.586825 0.000000 -0.000000 0.000000 9.064826 5.487726 -59.878568 0.330814 0.197011 -52.619207 -0.000000 0.000000 -0.000004 10.705998 17.800562 -69.579438 0.305071 0.178919 -58.708420 -0.000001 0.000001 -0.000002 0.000000 0.000001 -0.000003 4.688612 12.873416 -42.090590 -99.558579 -1.906489 5.791456 115.458228 158.421279 -132.672750 0.122094 19.989688 30.739283 -6.060906 8.892112 -8.958953 1.387404 -17.411083 3.015604 0.000000 -0.000000 -0.000002 6.317295 18.865817 -1.951880 0.102509 -0.229412 0.104439 0.000001 -0.000003 0.000001 5.621549 10.912330 11.403435 -0.009146 -0.547215 3.351798 0.000001 0.000000 -0.000002 6.182945 3.784361 19.084677 -0.017599 -0.202535 13.114960 -0.000001 -0.000000 0.000002 8.288250 -4.865960 31.765318 0.102092 -0.168034 23.687668 -0.000001 -0.000001 0.000000 0.000000 0.000001 -0.000000 -0.000000 0.000000 -0.000000 -0.000000 0.000000 -0.000000 -0.000000 0.000000 -0.000000 -0.000000 0.000000 -0.000000 -0.000000 0.000000 -0.000000 -0.000000 0.000000 0.000000 -0.000000 0.000000 -0.000000 -0.000000 0.000000 -0.000000 -0.000000 0.000000 0.000000 -0.000000 0.000000 0.000000 -0.000000 0.000000 0.000000 -0.000000 -0.000001 0.000000 
-18.139633 73.047531 12.532085 -13.832813 55.311213 9.388390 -0.000000 0.000004 0.000001 -43.617745 -14.971380 -8.692722 36.871011 -60.564093 -9.603279 6.231960 -4.938768 -9.252142 -0.000000 -0.000001 -0.000000 -0.000000 -0.000001 -0.000000 0.000000 0.000002 -0.000000 27.431635 -4.923940 29.887859 15.894171 -6.548565 -5.787258 -3.175057 7.862291 -16.132096 -0.000001 -0.000001 0.000000 -0.000001 -0.000001 0.000000 -0.000000 0.000004 -0.000005 6.888185 6.663701 0.957390 -0.178159 13.115767 1.312744 -0.155798 13.115788 1.313239 15.386003 15.077590 1.997506 10.815785 13.733711 -17.277382 0.000002 -0.000001 -0.000001 0.000002 -0.000001 -0.000001 0.000002 -0.000001 -0.000001 -11.931497 6.788047 -7.874613 70.246392 -17.445507 -22.751819 13.308532 8.264982 33.002627 -71.785479 9.014260 -16.912800 10.991679 9.711937 -2.478831 2.373419 19.986081 -2.038338 0.000001 0.000001 0.000001 9.586339 -13.310684 -40.756668 -0.226256 0.377466 -41.173227 0.000001 -0.000001 -0.000000 9.390635 -4.971059 -48.218130 0.437174 0.599259 -45.613858 0.000000 -0.000001 -0.000003 8.922627 5.183209 -57.344253 0.328789 0.196772 -51.080461 -0.000001 0.000001 -0.000005 9.593239 16.421110 -65.925396 0.301565 0.179253 -56.697366 -0.000001 0.000000 -0.000002 -0.000000 -0.000000 0.000001 4.739922 13.460413 -41.977748 -97.225940 -2.599510 4.585618 115.790831 157.997029 -136.460568 0.599777 21.870385 23.753479 -6.935385 10.086411 -8.987977 1.387343 -17.411114 3.015589 -0.000000 0.000001 0.000001 6.869766 19.835890 -4.558630 0.088787 -0.231443 0.203769 -0.000003 -0.000006 0.000003 6.030698 11.533141 8.732876 -0.018403 -0.539043 2.046906 0.000002 -0.000000 0.000001 6.424980 4.005448 16.695682 -0.014486 -0.192239 11.485397 0.000002 -0.000002 0.000002 8.234351 -5.186208 28.625642 0.092697 -0.165666 21.829758 0.000001 -0.000000 0.000000 -0.000000 -0.000000 0.000000 0.000000 0.000000 -0.000000 0.000000 0.000000 -0.000000 0.000000 0.000000 -0.000000 0.000000 0.000000 -0.000000 0.000000 0.000000 -0.000000 -0.000000 -0.000000 -0.000000 0.000000 0.000000 -0.000000 0.000000 0.000000 -0.000000 -0.000000 -0.000000 -0.000000 -0.000000 0.000000 -0.000000 -0.000000 0.000000 -0.000000 -0.000000 0.000004 0.000001 
-18.140656 72.977928 11.918857 -12.929576 54.059451 9.529599 -0.000000 0.000001 -0.000000 -43.546476 -14.711490 -8.552240 33.867575 -59.708742 -11.527134 6.200143 -4.883035 -9.834872 -0.000000 0.000001 -0.000000 -0.000000 0.000001 -0.000000 0.000001 0.000002 0.000000 26.820947 -5.191471 28.745350 16.600734 -7.834005 -6.591385 -4.903917 8.423908 -16.719804 0.000002 -0.000000 0.000001 0.000002 -0.000000 0.000001 0.000001 0.000003 -0.000003 7.113528 6.360102 0.757108 0.300943 12.500011 0.873037 0.323311 12.500120 0.873530 13.400945 15.440749 2.373273 13.355328 14.227405 -19.070607 0.000002 0.000001 -0.000000 0.000002 0.000001 -0.000000 0.000002 0.000001 -0.000000 -11.638142 5.313970 -7.955538 64.467683 -16.825964 -25.624742 17.037610 8.032028 28.960432 -68.783079 8.351584 -15.787753 9.326535 11.156475 -0.260843 2.373416 19.986083 -2.038341 -0.000001 0.000000 0.000002 9.706080 -11.453485 -39.632668 -0.229155 0.372955 -40.532924 -0.000001 0.000000 -0.000002 9.525805 -4.124293 -46.384265 0.431525 0.601690 -44.521311 0.000004 -0.000000 -0.000001 8.820197 4.862048 -54.594791 0.325274 0.198836 -49.390519 -0.000000 -0.000001 -0.000000 8.645620 14.957609 -61.979028 0.297142 0.180795 -54.544914 -0.000002 0.000001 -0.000000 0.000000 0.000001 0.000000 4.721479 14.048676 -41.588995 -94.505223 -3.565890 3.142741 116.308423 157.498630 -140.277756 1.486526 23.794236 17.507580 -7.722564 11.177143 -9.010928 1.387128 -17.410868 3.015756 0.000001 -0.000000 0.000000 7.505174 20.593171 -6.946232 0.077493 -0.232871 0.124908 -0.000001 -0.000001 0.000005 6.428689 11.962281 6.172468 -0.023127 -0.533349 1.139058 0.000001 0.000002 0.000002 6.594018 4.021656 14.538432 -0.010889 -0.182539 10.105909 0.000001 0.000002 0.000003 8.028908 -5.673614 25.751171 0.084864 -0.162962 20.249045 -0.000002 0.000000 0.000000 0.000000 0.000000 0.000001 0.000000 -0.000000 -0.000000 0.000000 -0.000000 -0.000000 0.000000 -0.000000 -0.000000 0.000000 -0.000000 -0.000000 0.000000 -0.000000 -0.000000 -0.000000 0.000000 -0.000000 0.000000 -0.000000 -0.000000 0.000000 -0.000000 -0.000000 -0.000000 0.000000 -0.000000 -0.000000 -0.000001 0.000000 -0.000000 -0.000001 0.000000 -0.000000 0.000001 -0.000000 
-17.903841 72.849548 11.037186 -12.180357 51.755181 9.088682 0.000000 -0.000002 -0.000000 -43.335313 -14.410166 -7.646944 31.899845 -58.384874 -12.993409 5.887743 -4.768279 -10.681252 -0.000000 -0.000000 0.000000 -0.000000 -0.000000 0.000000 0.000000 0.000001 0.000000 26.417649 -5.657309 27.443449 18.382185 -8.404988 -7.723101 -7.533025 8.986636 -16.215021 0.000002 0.000004 -0.000001 0.000002 0.000004 -0.000001 0.000001 -0.000001 -0.000001 7.361143 6.176500 0.887705 0.787346 12.130518 1.098871 0.809716 12.130473 1.099363 11.883377 15.274441 2.208785 14.902160 13.760007 -19.202022 -0.000003 -0.000000 -0.000000 -0.000003 -0.000000 -0.000000 -0.000003 -0.000000 -0.000000 -11.302209 3.696760 -7.983529 58.448060 -15.702994 -28.871374 19.451511 5.706826 26.066058 -64.091626 8.059862 -13.946142 7.560829 12.388505 2.176927 2.373411 19.986081 -2.038339 -0.000001 0.000000 -0.000000 9.838668 -9.535225 -38.380114 -0.229775 0.368173 -39.854980 -0.000001 0.000001 -0.000003 9.647836 -3.207274 -44.387671 0.424753 0.604550 -43.357751 -0.000000 -0.000001 -0.000002 8.779828 4.618116 -51.660949 0.320932 0.202375 -47.603628 -0.000000 0.000001 0.000002 7.908697 13.556072 -57.777123 0.291994 0.183164 -52.318361 -0.000001 -0.000001 0.000001 0.000002 -0.000002 0.000001 4.584589 14.590519 -40.796641 -91.517732 -4.828689 1.536081 116.978683 157.019110 -143.829891 2.495807 25.406309 12.910267 -8.393024 12.101815 -9.095030 1.387448 -17.412032 3.015307 0.000000 -0.000001 0.000000 8.181333 21.095862 -9.098699 0.067405 -0.234025 0.047508 0.000000 0.000002 -0.000001 6.779717 12.173411 3.875004 -0.024731 -0.528660 0.510162 0.000001 -0.000001 0.000001 6.658157 3.811657 12.645303 -0.006662 -0.173623 9.026469 0.000001 0.000000 0.000000 7.652339 -6.334974 23.203650 0.079004 -0.160358 19.001887 0.000001 -0.000002 -0.000000 -0.000000 -0.000000 -0.000001 -0.000000 -0.000000 0.000000 -0.000000 -0.000000 0.000000 -0.000000 -0.000000 0.000000 -0.000000 -0.000000 0.000000 -0.000000 -0.000000 0.000000 0.000000 -0.000000 0.000000 -0.000000 -0.000000 0.000000 -0.000000 -0.000000 0.000000 0.000000 -0.000000 0.000000 -0.000000 -0.000000 -0.000000 -0.000000 -0.000000 -0.000000 0.000000 -0.000002 -0.000000 
